<?xml version="1.0" encoding="UTF-8" standalone="no"?>
<svg width="140px" height="140px" viewBox="0 0 140 140" version="1.1" xmlns="http://www.w3.org/2000/svg" xmlns:xlink="http://www.w3.org/1999/xlink" xmlns:sketch="http://www.bohemiancoding.com/sketch/ns">
    <!-- Generator: Sketch 3.3.3 (12081) - http://www.bohemiancoding.com/sketch -->
    <title>feature_report</title>
    <desc>Created with Sketch.</desc>
    <defs></defs>
    <g id="Page-1" stroke="none" stroke-width="1" fill="none" fill-rule="evenodd" sketch:type="MSPage">
        <g id="feature_report" sketch:type="MSArtboardGroup">
            <g id="Group-Copy-4" sketch:type="MSLayerGroup" transform="translate(24.000000, 8.000000)">
                <g id="Shape-+-Rectangle-284" transform="translate(6.000000, 18.000000)"></g>
                <path d="M0,17.0060491 C0,14.2412845 2.2285847,12 4.99528504,12 L87.004715,12 C89.7635347,12 92,14.2372675 92,17.0060491 L92,108.993951 C92,111.758715 89.7714153,114 87.004715,114 L4.99528504,114 C2.23646529,114 0,111.762732 0,108.993951 L0,17.0060491 Z M7,21.0033445 C7,19.8969279 7.90295086,19 9.0064843,19 L82.9935157,19 C84.1016664,19 85,19.8996312 85,21.0033445 L85,104.996655 C85,106.103072 84.0970491,107 82.9935157,107 L9.0064843,107 C7.89833362,107 7,106.100369 7,104.996655 L7,21.0033445 Z" id="Rectangle-285" fill="#03A9F4" sketch:type="MSShapeGroup"></path>
                <path d="M46,18 L46,18 C49.3137085,18 52,15.3137085 52,12 C52,8.6862915 49.3137085,6 46,6 C42.6862915,6 40,8.6862915 40,12 C40,15.3137085 42.6862915,18 46,18 L46,18 Z M46,24 L46,24 C39.372583,24 34,18.627417 34,12 C34,5.372583 39.372583,0 46,0 C52.627417,0 58,5.372583 58,12 C58,18.627417 52.627417,24 46,24 L46,24 Z" id="Shape" fill="#03A9F4" sketch:type="MSShapeGroup"></path>
                <rect id="Rectangle-286" fill="#03A9F4" sketch:type="MSShapeGroup" x="17" y="18" width="58" height="8" rx="1"></rect>
                <g id="Rectangle-286-Copy-2-+-Rectangle-286-Copy-3-+-Rectangle-286-Copy-4" transform="translate(46.000000, 67.000000) rotate(-90.000000) translate(-46.000000, -67.000000) translate(19.000000, 42.000000)" fill="#03A9F4" sketch:type="MSShapeGroup">
                    <rect id="Rectangle-286-Copy-2" x="0" y="0" width="22" height="12" rx="1"></rect>
                    <rect id="Rectangle-286-Copy-3" x="0" y="19" width="54" height="12" rx="1"></rect>
                    <rect id="Rectangle-286-Copy-4" x="0" y="38" width="39" height="12" rx="1"></rect>
                </g>
            </g>
        </g>
    </g>
</svg>