<?xml version="1.0" encoding="UTF-8" standalone="no"?>
<svg width="140px" height="140px" viewBox="0 0 140 140" version="1.1" xmlns="http://www.w3.org/2000/svg" xmlns:xlink="http://www.w3.org/1999/xlink" xmlns:sketch="http://www.bohemiancoding.com/sketch/ns">
    <!-- Generator: Sketch 3.3.3 (12081) - http://www.bohemiancoding.com/sketch -->
    <title>feature_challenge</title>
    <desc>Created with Sketch.</desc>
    <defs></defs>
    <g id="Page-1" stroke="none" stroke-width="1" fill="none" fill-rule="evenodd" sketch:type="MSPage">
        <g id="feature_challenge" sketch:type="MSArtboardGroup" fill="#03A9F4">
            <g id="Group-Copy-22" sketch:type="MSLayerGroup" transform="translate(24.000000, 8.000000)">
                <path d="M25.8041806,84.3906702 L20.7921879,106.863799 C20.3105121,109.023571 21.6276746,110.23671 23.7632612,109.655711 C23.7632612,109.655711 27.7128911,108.082668 31.0000004,109.000001 C35.4184616,110.23306 40.0030211,114.628925 40.0030211,114.628925 C41.6785022,116.063022 43.438859,115.472125 43.9305782,113.327914 L48.5052371,93.3794636 L56.8417933,122.464782 C57.4499076,124.586425 58.82134,124.752369 60.0270995,122.899382 C60.0270995,122.899382 61.6044869,119.11655 65.5000003,118.000001 C69.2948274,116.912312 77.1057963,118.870971 77.1057963,118.870971 C79.264184,119.325321 80.5230335,117.981055 79.9134499,115.854285 L70.0903997,81.5827546 C69.2401929,82.043546 68.3961616,82.700493 67.9549107,83.2986712 L63.1111134,89.8651273 C61.5929116,91.9232658 58.5873002,92.8057013 56.1975878,91.8951745 L48.5727546,88.9899652 C47.4807023,88.573872 45.4727688,88.5739097 44.3808152,88.9899652 L36.755982,91.8951745 C34.3660887,92.8057702 31.3605433,91.9231099 29.8424565,89.8651273 L25.8041806,84.3906702 L25.8041806,84.3906702 Z" id="Shape" sketch:type="MSShapeGroup"></path>
                <path d="M49.286559,87.1210314 C47.7356513,86.5301259 45.2207329,86.5302784 43.6702255,87.1210314 L36.0451288,90.0262407 C34.4942211,90.6171462 32.4380138,90.0131192 31.4530292,88.6778786 L26.6090644,82.1114225 C25.6238255,80.7758371 23.508059,79.4162979 21.884304,79.0750033 L13.8989898,77.3965825 C12.2748156,77.0551998 10.8715855,75.4353904 10.7648493,73.7795916 L10.2399411,65.6366921 C10.1331773,63.9804659 9.08830368,61.6928789 7.90683179,60.5278954 L2.09658079,54.7987311 C0.914803911,53.6334469 0.610066778,51.5121331 1.41546697,50.0614805 L5.37626988,42.9274508 C6.18187799,41.4764237 6.53963725,38.9870818 6.17555748,37.3682834 L4.38508336,29.4073448 C4.02090961,27.7881285 4.91141727,25.8388125 6.37324502,25.0538781 L13.5622321,21.1937221 C15.0244373,20.4085851 16.6712433,18.5078367 17.2401484,16.9491804 L20.0379141,9.28400932 C20.606966,7.72495069 22.4099886,6.56652643 24.0641239,6.69652136 L32.1988426,7.33581135 C33.853405,7.46583983 36.2664086,6.75715911 37.5876752,5.75350734 L44.0854098,0.817741405 C45.4070175,-0.186169452 47.550108,-0.185910365 48.8713747,0.817741405 L55.3691093,5.75350734 C56.690717,6.7574182 59.1038065,7.46580628 60.7579418,7.33581135 L68.8926605,6.69652136 C70.5472229,6.56649287 72.3499653,7.72535305 72.9188704,9.28400932 L75.716636,16.9491804 C76.285688,18.508239 77.9327246,20.4087877 79.3945523,21.1937221 L86.5835394,25.0538781 C88.0457446,25.8390151 88.9357809,27.7885464 88.5717011,29.4073448 L86.781227,37.3682834 C86.4170532,38.9874997 86.7751144,41.4767982 87.5805146,42.9274508 L91.5413175,50.0614805 C92.3469256,51.5125076 92.0416756,53.6337477 90.8602037,54.7987311 L85.0499527,60.5278954 C83.8681758,61.6931797 82.8235796,63.9808933 82.7168434,65.6366921 L82.1919352,73.7795916 C82.0851714,75.4358178 80.6815497,77.0552879 79.0577947,77.3965825 L71.0724805,79.0750033 C69.4483063,79.416386 67.3327047,80.7761818 66.34772,82.1114225 L61.5037553,88.6778786 C60.5185164,90.0134639 58.4621631,90.6169937 56.9116556,90.0262407 L49.286559,87.1210314 L49.286559,87.1210314 Z M45.9783922,79 C64.4799313,79 79.4783922,64.0015391 79.4783922,45.5 C79.4783922,26.9984609 64.4799313,12 45.9783922,12 C27.4768531,12 12.4783922,26.9984609 12.4783922,45.5 C12.4783922,64.0015391 27.4768531,79 45.9783922,79 L45.9783922,79 Z" id="Star-1-Copy-6" sketch:type="MSShapeGroup"></path>
                <path d="M45.3783922,72.8 C60.234852,72.8 72.2783922,60.7564598 72.2783922,45.9 C72.2783922,31.0435402 60.234852,19 45.3783922,19 C30.5219325,19 18.4783922,31.0435402 18.4783922,45.9 C18.4783922,60.7564598 30.5219325,72.8 45.3783922,72.8 L45.3783922,72.8 Z M48.8479162,56.8592593 L44.6097652,56.8592593 L44.6097652,36.3865379 L38.3576168,38.5231264 L38.3576168,34.9329572 L48.3050126,31.2727358 L48.8479162,31.2727358 L48.8479162,56.8592593 L48.8479162,56.8592593 Z" id="Oval-127-Copy-11" sketch:type="MSShapeGroup"></path>
            </g>
        </g>
    </g>
</svg>