<?xml version="1.0" encoding="UTF-8" standalone="no"?>
<svg width="100px" height="85px" viewBox="0 0 100 85" version="1.1" xmlns="http://www.w3.org/2000/svg" xmlns:xlink="http://www.w3.org/1999/xlink" xmlns:sketch="http://www.bohemiancoding.com/sketch/ns">
    <!-- Generator: Sketch 3.3.2 (12043) - http://www.bohemiancoding.com/sketch -->
    <title>i_gears</title>
    <desc>Created with Sketch.</desc>
    <defs></defs>
    <g id="Page-1" stroke="none" stroke-width="1" fill="none" fill-rule="evenodd" sketch:type="MSPage">
        <g id="i_gears" sketch:type="MSArtboardGroup" fill="#FFFFFF">
            <g id="gg_gear-N14-D3.5-P4-PA27-@50-Copy-3-+-Oval-228-+-gearpoly0-+-gearpoly2" sketch:type="MSLayerGroup" transform="translate(0.000000, 2.000000)">
                <g id="gg_gear-N14-D3.5-P4-PA27-@50-Copy-3-+-Oval-228" sketch:type="MSShapeGroup">
                    <path d="M47.6396978,27.7125968 L48.9742698,27.7125691 L48.990285,27.7120426 L49.0195636,27.7104075 L49.0621057,27.7069434 L49.1178286,27.7010129 L49.1865674,27.6919786 L49.2682669,27.67912 L49.362762,27.6618273 L49.4698327,27.6394356 L49.5893138,27.6113073 L49.7209575,27.5768051 L49.8645439,27.5353193 L50.0197702,27.4862126 L50.1863613,27.428903 L50.3639593,27.362753 L50.5522892,27.2871807 L50.7509381,27.2016319 L50.9595484,27.1055524 L51.1777073,26.9983601 L51.4049744,26.8795561 L51.6409096,26.7485864 L51.885045,26.6049797 L52.1368853,26.4482096 L52.3959352,26.2778048 L52.6616718,26.0933498 L52.9335724,25.8943733 L53.2110315,25.6804875 L53.4934988,25.4512766 L53.7803689,25.2063527 L54.0710364,24.9453555 L54.3648959,24.6679524 L54.6613146,24.3738386 L54.7981592,24.0842142 L54.6733122,23.233964 L54.4590884,22.9966056 L54.0908215,22.8014813 L53.7298467,22.6215988 L53.3765769,22.4565148 L53.0315898,22.3057029 L52.6953533,22.1686087 L52.3682801,22.0447611 L52.0508655,21.9335504 L51.7434949,21.8344502 L51.4465534,21.7468507 L51.1604263,21.6701976 L50.8854713,21.6038814 L50.6219911,21.5472923 L50.3703159,21.4998206 L50.1306933,21.4608012 L49.9033987,21.4296246 L49.6886795,21.4056532 L49.4867009,21.388222 L49.2976556,21.3766658 L49.1217361,21.3703473 L48.9590251,21.3686014 L48.8096875,21.3707353 L48.673751,21.3760838 L48.5512981,21.3839819 L48.4423837,21.3937645 L48.3469805,21.4047664 L48.2650884,21.4162671 L48.1966523,21.427657 L48.1416173,21.4382155 L48.0999283,21.4473052 L48.0713926,21.4542611 L48.0559553,21.4584457 L46.7784821,21.8474197 L45.6469619,18.9200272 L46.8493673,18.3368156 L46.8635663,18.3293609 L46.8892401,18.315089 L46.9260861,18.29339 L46.9737189,18.2637098 L47.0317809,18.2254941 L47.0998592,18.1782164 L47.1775136,18.1213502 L47.2643589,18.0543966 L47.3598722,17.9768567 L47.4636132,17.8882595 L47.5751142,17.7881339 L47.6937972,17.6760642 L47.8191946,17.5516069 L47.9507283,17.4144018 L48.0878481,17.2640333 L48.229976,17.1001687 L48.3765343,16.9224478 L48.52689,16.7305381 L48.6804653,16.5241901 L48.8365996,16.303099 L48.9946878,16.0670431 L49.1540692,15.8157453 L49.314056,15.5490392 L49.4740154,15.266731 L49.6332317,14.9686543 L49.7910722,14.6546983 L49.9468213,14.3247521 L50.0997637,13.9787327 L50.2492113,13.6165844 L50.3944487,13.2382521 L50.534788,12.8437355 L50.5333021,12.5229899 L50.0544973,11.8114967 L49.7592344,11.6912518 L49.3433897,11.6763701 L48.9406434,11.6720469 L48.5512705,11.6776726 L48.1754638,11.6925266 L47.8134434,11.7159437 L47.4654294,11.7472589 L47.1315043,11.7857517 L46.8118884,11.8307847 L46.5066091,11.8816096 L46.215804,11.9375891 L45.9395006,11.9979748 L45.677754,12.0621295 L45.4305367,12.1293325 L45.1978211,12.1988634 L44.9796072,12.2701125 L44.7758124,12.3423315 L44.5863268,12.4148831 L44.4110403,12.4870744 L44.2498151,12.5582681 L44.1024589,12.6277713 L43.9688338,12.6949466 L43.8486648,12.7591844 L43.7417593,12.8198196 L43.6478145,12.8762147 L43.5666103,12.9277878 L43.497789,12.973957 L43.4410203,13.0141126 L43.3960017,13.0476725 L43.3623478,13.0740826 L43.3396458,13.0928164 L43.3275381,13.1033194 L42.3441447,14.0119878 L40.063493,11.8689172 L40.8955677,10.8180556 L40.9051437,10.8051692 L40.9221221,10.7810592 L40.9459522,10.7454209 L40.9760839,10.697866 L41.0119392,10.6380622 L41.0529128,10.5657324 L41.0983717,10.4805716 L41.1477657,10.3823027 L41.2004067,10.2706764 L41.2557169,10.1455263 L41.3130359,10.006603 L41.3717032,9.85376805 L41.4310585,9.68685508 L41.4904413,9.50575326 L41.5491912,9.31035174 L41.6066478,9.1006228 L41.6621231,8.87645561 L41.7149292,8.63785015 L41.7643782,8.38483414 L41.8098096,8.11740758 L41.8505355,7.83565361 L41.8858405,7.53959994 L41.9150916,7.22938513 L41.9375734,6.90514775 L41.9526255,6.56702635 L41.9595874,6.21518722 L41.9577437,5.84987977 L41.9464616,5.47127028 L41.9250804,5.07969128 L41.89294,4.6753645 L41.8494348,4.25859475 L41.7098935,3.97027289 L40.9719838,3.53845521 L40.6541565,3.55912881 L40.2730664,3.72742741 L39.9083493,3.89952263 L39.55995,4.07472167 L39.2277586,4.25230399 L38.9116924,4.43160449 L38.6116139,4.61190265 L38.327358,4.79247793 L38.058787,4.97272066 L37.8056534,5.15191031 L37.5677645,5.32940949 L37.3448451,5.5045531 L37.1366201,5.67673147 L36.9428417,5.84527948 L36.7631524,6.00964289 L36.5972493,6.1691566 L36.4447472,6.32329406 L36.3052884,6.47144561 L36.1784602,6.61308469 L36.0638498,6.74768477 L35.9610718,6.8746916 L35.8696036,6.99360636 L35.7890048,7.10398563 L35.7188076,7.2053306 L35.6584617,7.29719785 L35.6075268,7.379144 L35.5653975,7.45080878 L35.5315509,7.51177649 L35.5054643,7.56168688 L35.4865048,7.60020739 L35.4741494,7.62697776 L35.4677378,7.64177628 L34.9732206,8.89011792 L31.99511,7.95584314 L32.2920515,6.64548071 L32.2951335,6.62965682 L32.3000591,6.60053088 L32.306168,6.55799205 L32.3128272,6.50198489 L32.3193764,6.43245398 L32.3251,6.34939933 L32.3293928,6.25279322 L32.3315391,6.14266336 L32.3309062,6.01909289 L32.3268061,5.88216495 L32.3185784,5.73196267 L32.3055901,5.56862463 L32.2871534,5.39231709 L32.2626353,5.20317861 L32.2314029,5.00148633 L32.1927958,4.78740652 L32.1462087,4.5611886 L32.090981,4.3231651 L32.026535,4.07358546 L31.9522377,3.81278221 L31.8675388,3.54111562 L31.7718329,3.25897367 L31.6645146,2.96671663 L31.5450885,2.66473246 L31.412977,2.35352 L31.267657,2.03349493 L31.1086057,1.70515608 L30.9353279,1.36900228 L30.7473558,1.02553236 L30.5442215,0.675272846 L30.3254572,0.318805714 L30.0755157,0.119995544 L29.2246466,0.0533744615 L28.9471875,0.210892862 L28.6763601,0.529033473 L28.4219056,0.843460597 L28.1834664,1.15353684 L27.9606846,1.45870796 L27.753175,1.75836427 L27.5604973,2.05189609 L27.3822114,2.33883232 L27.2178492,2.61856327 L27.0669982,2.89061784 L26.9291355,3.15449718 L26.8037382,3.40970249 L26.6903385,3.65579035 L26.5883586,3.89234507 L26.4972756,4.11892326 L26.4165117,4.33516466 L26.3455165,4.54065356 L26.2837122,4.73508514 L26.2304658,4.91812684 L26.1851995,5.08944612 L26.1473078,5.24879355 L26.1161305,5.39591972 L26.091062,5.53057523 L26.0714696,5.65253837 L26.0566927,5.76167058 L26.0460984,5.85777786 L26.0390264,5.94074938 L26.0348162,6.01047427 L26.0328075,6.06684169 L26.0323121,6.10982393 L26.0327249,6.13936556 L26.0333028,6.15546658 L26.1255965,7.49631286 L23.03992,7.95584314 L22.7428959,6.64550843 L22.7388508,6.62990624 L22.7307332,6.60152854 L22.71791,6.56051389 L22.6998035,6.50713943 L22.6757257,6.44165457 L22.6450987,6.364281 L22.6073446,6.27537898 L22.5618307,6.17522566 L22.5080339,6.06418128 L22.445349,5.94260612 L22.3732256,5.81086044 L22.2911409,5.66938763 L22.198572,5.51857568 L22.0950236,5.3588957 L21.9799728,5.19079108 L21.852952,5.01478838 L21.7135207,4.8313587 L21.5612113,4.64102859 L21.3956109,4.44432458 L21.2163343,4.24180092 L21.0229687,4.03406729 L20.8151564,3.82167795 L20.5925672,3.60524257 L20.3548709,3.38537083 L20.1017648,3.16270011 L19.8329737,2.93786781 L19.548195,2.71153903 L19.2472634,2.48437888 L18.9299315,2.25705245 L18.5960064,2.03025255 L18.2453232,1.80469973 L17.9344854,1.73478085 L17.1391741,2.04654756 L16.9570632,2.30970638 L16.8501026,2.71469827 L16.756323,3.10915937 L16.6750912,3.49272943 L16.6058572,3.86502045 L16.5479878,4.22564447 L16.5008503,4.57432437 L16.4638393,4.91075529 L16.4362943,5.23457699 L16.4175823,5.54562317 L16.4070431,5.84361673 L16.4040437,6.12833595 L16.4078687,6.39961456 L16.4179126,6.65728628 L16.4334599,6.90124027 L16.4538779,7.13133796 L16.4784511,7.34752393 L16.5065189,7.54968732 L16.5373936,7.73785586 L16.5704146,7.91200181 L16.6049216,8.07215291 L16.6402266,8.21830915 L16.6756691,8.35058137 L16.7105613,8.46905272 L16.7442703,8.57380634 L16.7761356,8.66503621 L16.8054968,8.74288089 L16.8317209,8.80753438 L16.8542028,8.85921837 L16.8722818,8.89812686 L16.8853801,8.92459239 L16.8928649,8.93883666 L17.5536705,10.1065624 L14.9715369,11.8689172 L14.1394073,10.818111 L14.1290332,10.8058343 L14.1094957,10.7838028 L14.0802997,10.7524598 L14.0409496,10.7123043 L13.9910604,10.6638073 L13.9301366,10.6074953 L13.8578205,10.5438671 L13.773672,10.4735326 L13.6773332,10.3969904 L13.5684739,10.3148502 L13.4467639,10.2276664 L13.3118455,10.1360486 L13.1634711,10.0406341 L13.0013654,9.94200496 L12.8253083,9.84085398 L12.6350247,9.73776312 L12.430377,9.63342519 L12.2111449,9.52847759 L11.9772185,9.42361312 L11.7284327,9.31952461 L11.4647323,9.21682172 L11.1860074,9.11628042 L10.8922029,9.01853809 L10.5833188,8.92431526 L10.2593551,8.83430475 L9.92028429,8.74919936 L9.56621643,8.66969192 L9.19723407,8.59653067 L8.81336473,8.5303807 L8.41480105,8.47196255 L8.00168059,8.42194131 L7.69150317,8.49479773 L7.10926007,9.12320857 L7.0585728,9.43988041 L7.13669503,9.85149561 L7.22213691,10.2478689 L7.31421052,10.6289448 L7.41220039,10.9946125 L7.5154461,11.3448443 L7.62320469,11.6795848 L7.73478822,11.9988616 L7.84948122,12.3026748 L7.96662328,12.5910798 L8.08552646,12.864132 L8.20547531,13.1219977 L8.3258094,13.3647324 L8.44586832,13.5925022 L8.56499164,13.8055012 L8.68249143,14.0038957 L8.7977623,14.1879073 L8.91017135,14.3578133 L9.01905816,14.5138629 L9.12384486,14.6563334 L9.22392606,14.7855295 L9.31869638,14.9017838 L9.40760547,15.0054844 L9.49010298,15.0969637 L9.56561104,15.1766374 L9.63360682,15.2448935 L9.69362252,15.3022031 L9.74510779,15.348982 L9.78762235,15.3857289 L9.82067089,15.4128873 L9.84386815,15.4310113 L9.85674635,15.4405721 L10.9551905,16.2039156 L9.38806803,18.9200272 L8.18560766,18.3368988 L8.17099586,18.3303586 L8.14389111,18.3190519 L8.10407327,18.3035605 L8.05132219,18.2845497 L7.98547278,18.2626844 L7.9063324,18.2385468 L7.81376348,18.2128572 L7.70762843,18.1862254 L7.5878722,18.1593719 L7.45441226,18.1329341 L7.30716603,18.107577 L7.14616105,18.0839936 L6.9713698,18.0628489 L6.7828473,18.0448357 L6.58062109,18.0306191 L6.3647737,18.0208643 L6.13544273,18.0162917 L5.89271073,18.0175388 L5.63677032,18.0252983 L5.3677591,18.04018 L5.08592471,18.0629043 L4.7914873,18.0941087 L4.484667,18.1344305 L4.16579404,18.1845072 L3.83511606,18.2449484 L3.49296328,18.3164192 L3.13972094,18.3995292 L2.77574677,18.4948329 L2.4013985,18.6029674 L2.01714392,18.7244871 L1.62336828,18.8599463 L1.37529788,19.0611398 L1.12147632,19.8817098 L1.21222909,20.189181 L1.45991424,20.5258891 L1.70768194,20.8456924 L1.95481675,21.1487851 L2.20065823,21.4354165 L2.44454596,21.7058637 L2.68587457,21.9603762 L2.92392859,22.1992588 L3.15818519,22.4228718 L3.38798396,22.6315199 L3.61274702,22.8255912 L3.83189651,23.0055014 L4.0449096,23.1716107 L4.25120841,23.3243625 L4.45029763,23.464228 L4.64162691,23.5916228 L4.82478349,23.7070458 L4.99924453,23.8110234 L5.16456976,23.9040269 L5.32037393,23.9865827 L5.46618925,24.0592729 L5.60168549,24.1225962 L5.7264499,24.1771623 L5.84017979,24.2235532 L5.94254495,24.2623508 L6.03321516,24.2941371 L6.11197029,24.3195496 L6.17850764,24.3391978 L6.23263459,24.3537192 L6.274131,24.3637512 L6.30283177,24.3699311 L6.31854427,24.3729241 L7.63710104,24.5806854 L7.39533215,27.7125968 L6.06076019,27.7126245 L6.044745,27.7131511 L6.01546636,27.7147861 L5.97292428,27.7182502 L5.91720132,27.7241807 L5.84846256,27.733215 L5.76676306,27.7460736 L5.67226792,27.7633663 L5.56519727,27.7857581 L5.44571622,27.8138864 L5.31407242,27.8483885 L5.17048603,27.8898743 L5.01525973,27.938981 L4.84866869,27.9962907 L4.67107065,28.0624406 L4.48274078,28.1380129 L4.28409184,28.2235617 L4.07548156,28.3196412 L3.8573227,28.4268336 L3.63005554,28.5456375 L3.39412037,28.6766072 L3.14998498,28.8202139 L2.89814468,28.976984 L2.63909479,29.1473888 L2.37335815,29.3318438 L2.10145758,29.5308203 L1.82399848,29.7447061 L1.54153119,29.973917 L1.2546611,30.2188409 L0.963993585,30.4798382 L0.670134042,30.7572413 L0.373715371,31.051355 L0.236870769,31.3409794 L0.361717734,32.1912296 L0.575941589,32.428588 L0.944208492,32.6237124 L1.30518325,32.8035948 L1.65845311,32.9686788 L2.0034402,33.1194907 L2.33967671,33.2565849 L2.66674989,33.3804325 L2.98416443,33.4916432 L3.29153507,33.5907434 L3.58847658,33.678343 L3.8746037,33.754996 L4.14955871,33.8213122 L4.41303891,33.8779014 L4.6647141,33.925373 L4.90433663,33.9643924 L5.1316313,33.995569 L5.34635047,34.0195404 L5.54832903,34.0369717 L5.73737436,34.0485278 L5.91329383,34.0548463 L6.0760049,34.0565922 L6.22534245,34.0544583 L6.36127897,34.0491098 L6.48373192,34.0412117 L6.59264624,34.0314291 L6.68804946,34.0204272 L6.76994159,34.0089265 L6.83837765,33.9975366 L6.89341268,33.9869781 L6.93510171,33.9778884 L6.96363738,33.9709325 L6.9790747,33.9667479 L8.25654782,33.5777739 L9.38806803,36.5051664 L8.1856627,37.088378 L8.17146366,37.0958327 L8.14578982,37.1101047 L8.10894387,37.1318036 L8.06131105,37.1614838 L8.00324909,37.1996995 L7.93517076,37.2469772 L7.85751633,37.3038434 L7.77067106,37.3707971 L7.67515776,37.4483369 L7.57141673,37.5369341 L7.45991576,37.6370597 L7.34123272,37.7491294 L7.2158354,37.8735867 L7.08430168,38.0107918 L6.9471819,38.1611603 L6.80505394,38.3250249 L6.65849565,38.5027458 L6.50813995,38.6946555 L6.3545647,38.9010035 L6.19843032,39.1220946 L6.0403422,39.3581505 L5.88096075,39.6094483 L5.72097392,39.8761544 L5.5610146,40.1584626 L5.40179826,40.4565393 L5.2439578,40.7704953 L5.08820866,41.1004415 L4.93526631,41.446461 L4.78581869,41.8086092 L4.64058124,42.1869415 L4.50024192,42.5814581 L4.50172786,42.9022037 L4.98053262,43.6136969 L5.27579556,43.7339418 L5.69164025,43.7488235 L6.0943866,43.7531467 L6.48375943,43.747521 L6.85956613,43.7326671 L7.22158656,43.7092499 L7.56960057,43.6779347 L7.90352562,43.6394419 L8.22314155,43.5944089 L8.52842087,43.543584 L8.81922596,43.4876046 L9.09552933,43.4272188 L9.35727593,43.3630642 L9.60449329,43.2958611 L9.83720891,43.2263302 L10.0554228,43.1550811 L10.2592175,43.0828621 L10.4487031,43.0103105 L10.6239897,42.9381192 L10.7852148,42.8669255 L10.9325711,42.7974223 L11.0661962,42.730247 L11.1863652,42.6660092 L11.2932707,42.605374 L11.3872155,42.5489789 L11.4684197,42.4974058 L11.537241,42.4512366 L11.5940096,42.411081 L11.6390283,42.3775211 L11.6726822,42.351111 L11.6953841,42.3323773 L11.7074919,42.3218742 L12.6908853,41.4132058 L14.9715369,43.5562764 L14.1394623,44.6071381 L14.1298862,44.6200244 L14.1129079,44.6441344 L14.0890777,44.6797728 L14.0589461,44.7273276 L14.0230907,44.7871314 L13.9821172,44.8594612 L13.9366582,44.9446221 L13.8872643,45.0428909 L13.8346233,45.1545173 L13.7793131,45.2796674 L13.7219941,45.4185906 L13.6633267,45.5714256 L13.6039715,45.7383385 L13.5445887,45.9194404 L13.4858388,46.1148419 L13.4283822,46.3245708 L13.3729069,46.548738 L13.3201008,46.7873435 L13.2706518,47.0403595 L13.2252204,47.307786 L13.1844945,47.58954 L13.1491895,47.8855937 L13.1199384,48.1958085 L13.0974566,48.5200459 L13.0824045,48.8581673 L13.0754426,49.2100064 L13.0772862,49.5753138 L13.0885684,49.9539233 L13.1099495,50.3455023 L13.14209,50.7498291 L13.1855952,51.1665989 L13.3251365,51.4549207 L14.0630462,51.8867384 L14.3808735,51.8660648 L14.7619635,51.6977662 L15.1266807,51.525671 L15.4750799,51.3504719 L15.8072714,51.1728896 L16.1233376,50.9935891 L16.4234161,50.813291 L16.707672,50.6327157 L16.9762429,50.452473 L17.2293766,50.2732833 L17.4672655,50.0957841 L17.6901849,49.9206405 L17.8984099,49.7484622 L18.0921882,49.5799141 L18.2718776,49.4155507 L18.4377807,49.256037 L18.5902828,49.1018996 L18.7297415,48.953748 L18.8565698,48.8121089 L18.9711802,48.6775088 L19.0739581,48.550502 L19.1654264,48.4315873 L19.2460252,48.321208 L19.3162223,48.219863 L19.3765682,48.1279958 L19.4275032,48.0460496 L19.4696325,47.9743848 L19.503479,47.9134171 L19.5295656,47.8635067 L19.5485252,47.8249862 L19.5608806,47.7982159 L19.5672921,47.7834173 L20.0618094,46.5350757 L23.03992,47.4693505 L22.7429785,48.7797129 L22.7398965,48.7955368 L22.7349709,48.8246627 L22.728862,48.8672016 L22.7222028,48.9232087 L22.7156536,48.9927396 L22.7099299,49.0757943 L22.7056372,49.1724004 L22.7034908,49.2825303 L22.7041237,49.4061007 L22.7082239,49.5430287 L22.7164516,49.6932309 L22.7294399,49.856569 L22.7478766,50.0328765 L22.7723947,50.222015 L22.8036271,50.4237073 L22.8422342,50.6377871 L22.8888213,50.864005 L22.944049,51.1020285 L23.008495,51.3516082 L23.0827923,51.6124114 L23.1674912,51.884078 L23.2631971,52.1662199 L23.3705154,52.458477 L23.4899414,52.7604612 L23.622053,53.0716736 L23.767373,53.3916987 L23.9264242,53.7200375 L24.099702,54.0561913 L24.2876742,54.3996613 L24.4908085,54.7499208 L24.7095727,55.1063879 L24.9595143,55.3051981 L25.8103834,55.3718192 L26.0878425,55.2143008 L26.3586699,54.8961601 L26.6131243,54.581733 L26.8515636,54.2716568 L27.0743454,53.9664857 L27.281855,53.6668294 L27.4745326,53.3732975 L27.6528186,53.0863613 L27.8171807,52.8066303 L27.9680317,52.5345758 L28.1058945,52.2706964 L28.2312918,52.0154911 L28.3446915,51.7694033 L28.4466714,51.5328485 L28.5377544,51.3062704 L28.6185183,51.090029 L28.6895135,50.8845401 L28.7513178,50.6901085 L28.8045642,50.5070668 L28.8498305,50.3357475 L28.8877221,50.1764001 L28.9188995,50.0292739 L28.9439679,49.8946184 L28.9635604,49.7726552 L28.9783373,49.663523 L28.9889315,49.5674158 L28.9960035,49.4844442 L29.0002137,49.4147193 L29.0022225,49.3583519 L29.0027178,49.3153697 L29.0023051,49.2858281 L29.0017272,49.269727 L28.9094334,47.9288808 L31.99511,47.4693505 L32.292134,48.7796852 L32.2961791,48.7952874 L32.3042968,48.8236651 L32.3171199,48.8646797 L32.3352265,48.9180542 L32.3593043,48.9835391 L32.3899313,49.0609126 L32.4276853,49.1498146 L32.4731993,49.249968 L32.526996,49.3610123 L32.5896809,49.4825875 L32.6618043,49.6143332 L32.7438891,49.755806 L32.836458,49.9066179 L32.9400064,50.0662979 L33.0550571,50.2344025 L33.182078,50.4104052 L33.3215092,50.5938349 L33.4738187,50.784165 L33.6394191,50.980869 L33.8186957,51.1833927 L34.0120613,51.3911263 L34.2198736,51.6035157 L34.4424627,51.8199511 L34.680159,52.0398228 L34.9332651,52.2624935 L35.2020562,52.4873258 L35.486835,52.7136546 L35.7877665,52.9408147 L36.1050985,53.1681412 L36.4390236,53.3949411 L36.7897068,53.6204939 L37.1005446,53.6904128 L37.8958558,53.3786461 L38.0779667,53.1154872 L38.1849273,52.7104953 L38.278707,52.3160342 L38.3599387,51.9324642 L38.4291728,51.5601732 L38.4870421,51.1995491 L38.5341796,50.8508693 L38.5711907,50.5144383 L38.5987357,50.1906166 L38.6174476,49.8795704 L38.6279868,49.5815769 L38.6309862,49.2968577 L38.6271613,49.0255791 L38.6171174,48.7679073 L38.60157,48.5239533 L38.581152,48.2938557 L38.5565789,48.0776697 L38.528511,47.8755063 L38.4976364,47.6873378 L38.4646153,47.5131918 L38.4301084,47.3530407 L38.3948034,47.2068845 L38.3593609,47.0746122 L38.3244686,46.9561409 L38.2907597,46.8513873 L38.2588944,46.7601574 L38.2295332,46.6823127 L38.203309,46.6176592 L38.1808272,46.5659752 L38.1627482,46.5270668 L38.1496499,46.5006012 L38.1421651,46.486357 L37.4813595,45.3186313 L40.063493,43.5562764 L40.8956227,44.6070826 L40.9059968,44.6193593 L40.9255342,44.6413908 L40.9547303,44.6727338 L40.9940804,44.7128893 L41.0439696,44.7613864 L41.1048934,44.8176984 L41.1772094,44.8813265 L41.261358,44.9516611 L41.3576968,45.0282032 L41.4665561,45.1103434 L41.5882661,45.1975272 L41.7231844,45.2891451 L41.8715589,45.3845595 L42.0336646,45.4831887 L42.2097216,45.5843396 L42.4000052,45.6874305 L42.604653,45.7917684 L42.823885,45.896716 L43.0578114,46.0015805 L43.3065973,46.105669 L43.5702976,46.2083719 L43.8490225,46.3089132 L44.142827,46.4066555 L44.4517112,46.5008784 L44.7756749,46.5908889 L45.1147457,46.6759943 L45.4688135,46.7555017 L45.8377959,46.828663 L46.2216652,46.8948129 L46.6202289,46.9532311 L47.0333494,47.0032523 L47.3435268,46.9303959 L47.9257699,46.301985 L47.9764572,45.9853132 L47.8983349,45.573698 L47.8128931,45.1773247 L47.7208194,44.7962488 L47.6228296,44.4305811 L47.5195839,44.0803493 L47.4118253,43.7456088 L47.3002417,43.426332 L47.1855487,43.1225188 L47.0684067,42.8341138 L46.9495035,42.5610616 L46.8295547,42.3031959 L46.7092206,42.0604613 L46.5891616,41.8326914 L46.4700383,41.6196924 L46.3525385,41.4212979 L46.2372677,41.2372863 L46.1248586,41.0673804 L46.0159718,40.9113307 L45.9111851,40.7688603 L45.8111039,40.6396641 L45.7163336,40.5234098 L45.6274245,40.4197093 L45.544927,40.32823 L45.4694189,40.2485563 L45.4014231,40.1803001 L45.3414074,40.1229905 L45.2899222,40.0762116 L45.2474076,40.0394647 L45.2143591,40.0123064 L45.1911618,39.9941823 L45.1782836,39.9846215 L44.0798395,39.221278 L45.6469619,36.5051664 L46.8494223,37.0882948 L46.8640341,37.094835 L46.8911389,37.1061418 L46.9309567,37.1216331 L46.9837078,37.1406439 L47.0495572,37.1625092 L47.1286976,37.1866469 L47.2212665,37.2123364 L47.3274015,37.2389682 L47.4471578,37.2658217 L47.5806177,37.2922596 L47.7278639,37.3176166 L47.8888689,37.3412 L48.0636602,37.3623447 L48.2521827,37.3803579 L48.4544089,37.3945745 L48.6702563,37.4043293 L48.8995872,37.4089019 L49.1423192,37.4076548 L49.3982596,37.3998953 L49.6672709,37.3850136 L49.9491053,37.3622893 L50.2435427,37.3310849 L50.550363,37.2907631 L50.8692359,37.2406864 L51.1999139,37.1802452 L51.5420667,37.1087745 L51.895309,37.0256644 L52.2592832,36.9303608 L52.6336315,36.8222262 L53.017886,36.7007065 L53.4116617,36.5652473 L53.6597321,36.3640538 L53.9135536,35.5434839 L53.8228009,35.2360126 L53.5751157,34.8993045 L53.327348,34.5795012 L53.0802132,34.2764085 L52.8343717,33.9897771 L52.590484,33.7193299 L52.3491554,33.4648174 L52.1111014,33.2259348 L51.8768448,33.0023219 L51.647046,32.7936737 L51.4222829,32.5996024 L51.2031335,32.4196922 L50.9901204,32.2535829 L50.7838216,32.1008311 L50.5847323,31.9609656 L50.3934031,31.8335708 L50.2102465,31.7181478 L50.0357854,31.6141702 L49.8704602,31.5211667 L49.714656,31.4386109 L49.5688407,31.3659207 L49.4333445,31.3025975 L49.3085801,31.2480313 L49.1948502,31.2016405 L49.092485,31.1628428 L49.0018148,31.1310565 L48.9230597,31.105644 L48.8565223,31.0859958 L48.8023954,31.0714744 L48.760899,31.0614424 L48.7321982,31.0552625 L48.7164857,31.0522696 L47.3979289,30.8445082 L47.6396978,27.7125968 Z M27.8787879,38.2559415 C33.6000816,38.2559415 38.2381065,33.6157533 38.2381065,27.891791 C38.2381065,22.1678288 33.6000816,17.5276406 27.8787879,17.5276406 C22.1574942,17.5276406 17.5194692,22.1678288 17.5194692,27.891791 C17.5194692,33.6157533 22.1574942,38.2559415 27.8787879,38.2559415 Z" id="gearpoly1"></path>
                </g>
                <path d="M92.6523768,27.2155128 L95.1102688,27.2154851 L95.1312646,27.2145706 L95.1754302,27.2108017 L95.242573,27.2020999 L95.3322526,27.1864977 L95.4440012,27.1619721 L95.5771309,27.1265831 L95.7308988,27.0784186 L95.9043692,27.0155942 L96.096579,26.9363084 L96.3063726,26.8388155 L96.532484,26.7214527 L96.773565,26.5825848 L97.0281295,26.4207156 L97.2946091,26.2344315 L97.5713527,26.0224024 L97.8565993,25.7833813 L98.1485051,25.5162318 L98.4451164,25.2199842 L98.7444519,24.8937515 L99.0444754,24.5367024 L99.3430129,24.1482549 L99.6379181,23.7278548 L99.6133725,23.3474994 L99.5582274,23.1126352 L99.4110362,22.7614611 L98.9604094,22.5186157 L98.520707,22.3059492 L98.0936902,22.1220484 L97.680955,21.9653614 L97.2840149,21.8342808 L96.9042456,21.7270885 L96.5429131,21.6420385 L96.2011731,21.5772742 L95.8800712,21.530911 L95.5804605,21.5010091 L95.3031665,21.4855732 L95.0487946,21.4826356 L94.8178676,21.4900903 L94.6107708,21.5058865 L94.4276968,21.5279735 L94.2688107,21.554245 L94.1340299,21.5826504 L94.0232168,21.611139 L93.9360964,21.6376322 L93.8722007,21.6601348 L93.8310345,21.6766792 L93.8118548,21.6853256 L91.614251,22.7939126 L89.7811167,20.2345157 L91.5190955,18.4841881 L91.5332945,18.4685859 L91.5618577,18.4344717 L91.603244,18.3805153 L91.6556924,18.3056081 L91.7174968,18.2086972 L91.7867859,18.0888679 L91.8616885,17.9453167 L91.940251,17.7773506 L92.0204921,17.5844155 L92.100403,17.366068 L92.1778648,17.1220585 L92.2508412,16.8521933 L92.317186,16.5564721 L92.3748351,16.2349506 L92.4216424,15.8879612 L92.4555165,15.5158087 L92.4743385,15.1190475 L92.4760721,14.6983425 L92.458681,14.2544976 L92.420129,13.7883717 L92.3584897,13.3011011 L92.2718646,12.793822 L91.9874436,12.5423856 L91.7835113,12.4155728 L91.4328831,12.272077 L90.9437317,12.4212539 L90.4835013,12.5839822 L90.0524394,12.7580174 L89.6505736,12.9411422 L89.2778489,13.1311398 L88.9340451,13.325793 L88.6188319,13.5229405 L88.3317142,13.7205036 L88.0720864,13.9164039 L87.8392607,14.1085908 L87.6323565,14.2951797 L87.4504107,14.4742031 L87.2923501,14.6439427 L87.1569915,14.8025973 L87.043069,14.9485596 L86.9491517,15.0803053 L86.8738087,15.1963656 L86.8154441,15.2954104 L86.7724342,15.3761927 L86.743073,15.4376038 L86.7255719,15.4786461 L86.7180871,15.4984052 L85.942506,17.8472695 L82.8492621,17.3429002 L82.8492346,14.8675834 L82.8483265,14.8464387 L82.8445841,14.8019599 L82.8359436,14.7343412 L82.8204513,14.6440258 L82.7960983,14.531485 L82.7609584,14.3974114 L82.7131329,14.2425535 L82.6507507,14.0678532 L82.5720231,13.8742808 L82.4752165,13.6629999 L82.3586798,13.4352855 L82.2207896,13.1924954 L82.0600598,12.9361262 L81.875087,12.6677574 L81.6645505,12.3890518 L81.427212,12.1017831 L81.1619431,11.8078078 L80.8677809,11.5090938 L80.5438447,11.2076361 L80.189309,10.9054857 L79.803596,10.6048317 L79.3861553,10.3078358 L79.0084774,10.3325555 L78.7752665,10.3880915 L78.4265645,10.5363262 L78.1854285,10.9901477 L77.9742591,11.4329673 L77.7916529,11.8630113 L77.6360689,12.2786726 L77.505911,12.6784268 L77.3994733,13.0608883 L77.315022,13.4247824 L77.2507136,13.7689452 L77.2046768,14.0923235 L77.1749854,14.3940582 L77.1596581,14.6733181 L77.1567413,14.9294933 L77.1641435,15.1620574 L77.1798285,15.3706224 L77.2017599,15.5549943 L77.2278465,15.7150069 L77.256052,15.8507432 L77.28434,15.9623418 L77.3106467,16.0500799 L77.332991,16.1144285 L77.3494189,16.1558866 L77.3580044,16.1752022 L78.4587875,18.3883856 L75.9174074,20.2345157 L74.1794012,18.4842158 L74.1639088,18.4699161 L74.1300348,18.4411504 L74.0764582,18.3994707 L74.0020783,18.3466505 L73.9058496,18.284408 L73.7868638,18.2146277 L73.6443231,18.139194 L73.4775395,18.0600745 L73.2859625,17.9792646 L73.069152,17.8987872 L72.8268603,17.8207762 L72.5588947,17.7472824 L72.2652553,17.6804674 L71.9459971,17.6224095 L71.6014503,17.5752703 L71.2319176,17.5411561 L70.8379494,17.5222007 L70.420206,17.5204548 L69.9794854,17.5379692 L69.5166408,17.5767945 L69.0328004,17.6388708 L68.5290923,17.72611 L68.2794258,18.0125474 L68.1535057,18.2179255 L68.01102,18.5710394 L68.1591468,19.0636585 L68.3207296,19.5271517 L68.4935396,19.9612695 L68.6753754,20.3659843 L68.8640355,20.7413514 L69.0573185,21.0875926 L69.2530781,21.4050404 L69.4492504,21.6941936 L69.6437718,21.955662 L69.8346057,22.1901382 L70.0198812,22.3985093 L70.1976443,22.5817449 L70.3661891,22.7409261 L70.5237269,22.8772444 L70.6686616,22.9919745 L70.7994799,23.0865576 L70.9147232,23.1624347 L71.0130708,23.2212131 L71.0932844,23.2645279 L71.1542632,23.2940972 L71.1950166,23.3117225 L71.2146366,23.3192603 L73.5469662,24.1003398 L73.0461474,27.2155128 L70.5882554,27.2155405 L70.5672596,27.2164551 L70.5230939,27.220224 L70.4559512,27.2289257 L70.3662716,27.2445279 L70.254523,27.2690536 L70.1213933,27.3044426 L69.9676254,27.3526071 L69.794155,27.4154315 L69.6019451,27.4947172 L69.3921516,27.5922102 L69.1660402,27.709573 L68.9249592,27.8484408 L68.6703947,28.0103101 L68.4039151,28.1965942 L68.1271714,28.4086233 L67.8419249,28.6476444 L67.5500191,28.9147938 L67.2534078,29.2110415 L66.9540723,29.5372742 L66.6540488,29.8943233 L66.3555113,30.2827708 L66.0606061,30.7031709 L66.0851517,31.0835262 L66.1402968,31.3183905 L66.287488,31.6695645 L66.7381148,31.91241 L67.1778172,32.1250765 L67.604834,32.3089773 L68.0175692,32.4656643 L68.4145093,32.5967449 L68.7942786,32.7039372 L69.155611,32.7889872 L69.4973511,32.8537515 L69.8184529,32.9001147 L70.1180636,32.9300166 L70.3953576,32.9454525 L70.6497296,32.94839 L70.8806565,32.9409353 L71.0877534,32.9251392 L71.2708274,32.9030522 L71.4297135,32.8767807 L71.5644943,32.8483753 L71.6753073,32.8198867 L71.7624278,32.7933935 L71.8263235,32.7708908 L71.8674897,32.7543464 L71.8866694,32.7457001 L74.0842731,31.6371131 L75.9174074,34.19651 L74.1794287,35.9468376 L74.1652297,35.9624398 L74.1366665,35.996554 L74.0952802,36.0505104 L74.0428318,36.1254175 L73.9810274,36.2223285 L73.9117383,36.3421578 L73.8368357,36.485709 L73.7582731,36.6536751 L73.6780321,36.8466102 L73.5981212,37.0649577 L73.5206594,37.3089671 L73.447683,37.5788324 L73.3813382,37.8745535 L73.323689,38.1960751 L73.2768817,38.5430645 L73.2430077,38.915217 L73.2241857,39.3119782 L73.2224521,39.7326831 L73.2398432,40.1765281 L73.2783952,40.642654 L73.3400344,41.1299246 L73.4266596,41.6372036 L73.7110806,41.88864 L73.9150129,42.0154529 L74.2656411,42.1589487 L74.7547924,42.0097718 L75.2150229,41.8470434 L75.6460847,41.6730083 L76.0479505,41.4898835 L76.4206753,41.2998859 L76.7644791,41.1052326 L77.0796922,40.9080852 L77.36681,40.7105221 L77.6264377,40.5146218 L77.8592634,40.3224349 L78.0661676,40.135846 L78.2481134,39.9568226 L78.4061741,39.787083 L78.5415327,39.6284283 L78.6554552,39.4824661 L78.7493725,39.3507204 L78.8247155,39.2346601 L78.8830801,39.1356152 L78.92609,39.054833 L78.9554512,38.9934219 L78.9729523,38.9523795 L78.9804371,38.9326205 L79.7560182,36.5837562 L82.8492621,37.0881254 L82.8492896,39.5634423 L82.8501977,39.584587 L82.8539401,39.6290657 L82.8625806,39.6966845 L82.8780729,39.7869998 L82.9024259,39.8995407 L82.9375658,40.0336142 L82.9853912,40.1884722 L83.0477734,40.3631724 L83.1265011,40.5567449 L83.2233077,40.7680258 L83.3398443,40.9957402 L83.4777346,41.2385302 L83.6384644,41.4948995 L83.8234372,41.7632682 L84.0339737,42.0419738 L84.2713122,42.3292426 L84.5365811,42.6232178 L84.8307433,42.9219319 L85.1546795,43.2233895 L85.5092152,43.52554 L85.8949282,43.8261939 L86.3123689,44.1231898 L86.6900468,44.0984702 L86.9232577,44.0429342 L87.2719597,43.8946995 L87.5130956,43.440878 L87.724265,42.9980584 L87.9068713,42.5680143 L88.0624553,42.1523531 L88.1926132,41.7525989 L88.2990509,41.3701373 L88.3835022,41.0062432 L88.4478106,40.6620805 L88.4938474,40.3387022 L88.5235388,40.0369675 L88.538866,39.7577076 L88.5417829,39.5015324 L88.5343807,39.2689683 L88.5186957,39.0604033 L88.4967642,38.8760313 L88.4706776,38.7160188 L88.4424722,38.5802825 L88.4141842,38.4686839 L88.3878774,38.3809458 L88.3655332,38.3165972 L88.3491053,38.2751391 L88.3405198,38.2558234 L87.2397366,36.04264 L89.7811167,34.19651 L91.519123,35.9468099 L91.5346153,35.9611096 L91.5684894,35.9898752 L91.622066,36.031555 L91.6964459,36.0843752 L91.7926746,36.1466177 L91.9116603,36.216398 L92.0542011,36.2918317 L92.2209847,36.3709512 L92.4125617,36.4517611 L92.6293722,36.5322385 L92.8716639,36.6102494 L93.1396294,36.6837432 L93.4332688,36.7505583 L93.7525271,36.8086162 L94.0970739,36.8557553 L94.4666066,36.8898695 L94.8605748,36.9088249 L95.2783182,36.9105708 L95.7190387,36.8930565 L96.1818833,36.8542311 L96.6657238,36.7921549 L97.1694319,36.7049157 L97.4190983,36.4184783 L97.5450185,36.2131002 L97.6875042,35.8599863 L97.5393774,35.3673672 L97.3777945,34.903874 L97.2049846,34.4697562 L97.0231488,34.0650414 L96.8344887,33.6896743 L96.6412057,33.3434331 L96.4454461,33.0259853 L96.2492737,32.7368321 L96.0547524,32.4753637 L95.8639185,32.2408874 L95.678643,32.0325164 L95.5008799,31.8492807 L95.3323351,31.6900996 L95.1747973,31.5537813 L95.0298626,31.4390512 L94.8990443,31.3444681 L94.783801,31.268591 L94.6854534,31.2098126 L94.6052398,31.1664978 L94.544261,31.1369284 L94.5035076,31.1193032 L94.4838876,31.1117654 L92.151558,30.3306858 L92.6523768,27.2155128 Z M83.030303,31.5298507 C85.3733292,31.5298507 87.2727273,29.6295668 87.2727273,27.2854478 C87.2727273,24.9413287 85.3733292,23.0410448 83.030303,23.0410448 C80.6872768,23.0410448 78.7878788,24.9413287 78.7878788,27.2854478 C78.7878788,29.6295668 80.6872768,31.5298507 83.030303,31.5298507 Z" id="gearpoly0" sketch:type="MSShapeGroup"></path>
                <path d="M79.6220653,57.1284036 L81.3310956,57.1283759 L81.348184,57.127794 L81.3807922,57.1257432 L81.4288378,57.1213092 L81.4921831,57.1136328 L81.5706355,57.1017996 L81.6640575,57.0848949 L81.7721738,57.062032 L81.8947093,57.0323518 L82.0313613,56.9950229 L82.181772,56.9491586 L82.3455288,56.8939274 L82.5222463,56.8285256 L82.7114292,56.7521497 L82.9126097,56.6640237 L83.1252376,56.5633715 L83.3487623,56.449445 L83.5825511,56.3215514 L83.8260261,56.1789978 L84.0784718,56.0211191 L84.3392553,55.8472503 L84.6076061,55.6567816 L84.8828088,55.4491588 L85.1640653,55.2238 L85.4505776,54.9801786 L85.7415478,54.7178511 L86.0360953,54.4362911 L86.3333395,54.1351106 L86.6324274,53.8139494 L86.7464325,53.5007416 L86.6383437,52.842706 L86.4302837,52.5831498 L86.0444331,52.3760536 L85.6667277,52.1873308 L85.2978554,52.0162886 L84.9385042,51.862262 L84.5893345,51.7245581 L84.2510066,51.602401 L83.9240985,51.4950701 L83.6091331,51.4017895 L83.3066605,51.3217278 L83.0171488,51.2541091 L82.741093,51.1981019 L82.4788511,51.1528473 L82.2308083,51.117486 L81.9973221,51.091159 L81.7786955,51.0729518 L81.5751484,51.0619776 L81.3869286,51.0573774 L81.2142287,51.0582087 L81.0571862,51.0635573 L80.9158563,51.0725084 L80.7903764,51.0841477 L80.6806916,51.0975883 L80.5868569,51.1118603 L80.5087622,51.1261046 L80.4463524,51.1393512 L80.3994626,51.1507688 L80.367955,51.1593874 L80.3515546,51.1643757 L78.7335522,51.7185722 L77.3870377,48.7280227 L78.8670672,47.8674358 L78.8815965,47.8582906 L78.9088113,47.8401111 L78.9482164,47.8120937 L78.9992614,47.7735455 L79.0613409,47.7237737 L79.1338495,47.6620854 L79.2161269,47.5878711 L79.3075126,47.5004656 L79.4073186,47.3993146 L79.514802,47.2838639 L79.6292198,47.1535593 L79.7497741,47.0079573 L79.8757217,46.8465314 L80.0061823,46.6689214 L80.1403302,46.4746838 L80.2773674,46.2634861 L80.4163308,46.0349957 L80.5564225,45.7889356 L80.6966518,45.5250839 L80.8361656,45.2431914 L80.9740008,44.9431194 L81.1092494,44.6247294 L81.2409482,44.2879382 L81.3681342,43.9326904 L81.4898716,43.558986 L81.60517,43.1668251 L81.7130662,42.7563461 L81.8126246,42.3275768 L81.7558559,41.9989608 L81.3355534,41.4834788 L81.0265042,41.3634833 L80.5895261,41.3784204 L80.1687282,41.405163 L79.7643308,41.4427967 L79.3766641,41.4903515 L79.0059206,41.546913 L78.6522655,41.6114833 L78.3158639,41.6831481 L77.9967708,41.7609651 L77.6950963,41.8439366 L77.4108128,41.9311758 L77.1438929,42.0216852 L76.8943366,42.1145224 L76.6619787,42.2088006 L76.4466816,42.30355 L76.2483079,42.3978837 L76.0666097,42.4908871 L75.901312,42.5816736 L75.7521671,42.6693286 L75.6187897,42.7530483 L75.5008771,42.8319738 L75.3979616,42.9052459 L75.3096579,42.9721164 L75.2354707,43.0317262 L75.1749322,43.0833825 L75.1274369,43.1262816 L75.0925172,43.1597584 L75.069485,43.1831201 L75.0577901,43.1957016 L73.9316908,44.4903787 L71.2808185,42.5785144 L72.1352924,41.0879646 L72.1433551,41.0727504 L72.1578843,41.0432642 L72.1781097,40.9991735 L72.2031781,40.9400902 L72.2322366,40.8657373 L72.2644046,40.7758099 L72.2988015,40.6700864 L72.3345467,40.5483727 L72.3707598,40.4105302 L72.4065326,40.2564205 L72.4409295,40.0859603 L72.4730424,39.8991497 L72.5019633,39.6959332 L72.5267566,39.4764217 L72.5465142,39.2406429 L72.5603004,38.9887631 L72.5672349,38.7208932 L72.5663818,38.4372825 L72.5568332,38.1381527 L72.5377086,37.823781 L72.5080997,37.4944999 L72.4671537,37.1506697 L72.4139898,36.7926784 L72.3477552,36.4209693 L72.2676517,36.0360414 L72.1727988,35.6383656 L72.0624536,35.228524 L71.9357904,34.8070986 L71.7234653,34.5510619 L71.1035507,34.3163085 L70.7763399,34.3679925 L70.4053213,34.6009723 L70.0541703,34.8360305 L69.7226668,35.0722527 L69.4105356,35.3086411 L69.1175291,35.5443091 L68.8433171,35.7783142 L68.5875693,36.0097698 L68.349873,36.2378445 L68.1297879,36.4616237 L67.9269013,36.6803038 L67.7406902,36.8930811 L67.5706595,37.099152 L67.4162312,37.2977959 L67.2768275,37.4882646 L67.1518705,37.6698652 L67.0406722,37.841905 L66.9425998,38.0037466 L66.8569653,38.1547803 L66.7830257,38.294424 L66.7200656,38.4221514 L66.6673421,38.5374358 L66.624057,38.6398061 L66.5894125,38.7287913 L66.5626104,38.8040033 L66.5427978,38.8650818 L66.5291766,38.9116667 L66.5208388,38.9434808 L66.5169313,38.9602746 L66.1844922,40.648526 L62.9395718,40.3276418 L62.9395443,38.6064956 L62.9389664,38.5892861 L62.9369301,38.5564466 L62.9325273,38.5080604 L62.924905,38.444266 L62.913155,38.3652574 L62.8963693,38.2711732 L62.8736674,38.1622904 L62.8441961,38.0388862 L62.80713,37.9012654 L62.7615885,37.7497884 L62.7067461,37.5848707 L62.6418048,37.4069004 L62.5659665,37.2163763 L62.4784608,37.0137695 L62.3785172,36.7996343 L62.2653927,36.5745248 L62.1383994,36.3390786 L61.9968493,36.0938776 L61.840082,35.8396422 L61.6674371,35.5770099 L61.4783092,35.3067567 L61.272148,35.029603 L61.0483756,34.7463525 L60.8064691,34.457809 L60.5459883,34.164776 L60.2664103,33.8681404 L59.96735,33.5687889 L59.6484495,33.2675807 L59.3374466,33.1527674 L58.6840432,33.2616225 L58.4263141,33.4711574 L58.2206757,33.8597434 L58.0332815,34.2401265 L57.8634433,34.6116139 L57.710501,34.9735127 L57.5737665,35.3251578 L57.4524693,35.6658842 L57.3458939,35.9951099 L57.25327,36.3123083 L57.1737719,36.6169251 L57.1066291,36.9084894 L57.0510162,37.1865021 L57.0060801,37.4506032 L56.9709678,37.7004045 L56.9448261,37.9355459 L56.9267471,38.1557225 L56.9158502,38.3607126 L56.9112823,38.5502667 L56.9121078,38.724191 L56.9174187,38.8823468 L56.9263069,39.0246787 L56.9378642,39.1510481 L56.9512102,39.2615105 L56.9653817,39.3560105 L56.9795257,39.4346588 L56.9926791,39.497511 L57.0040163,39.5447333 L57.0125743,39.5764642 L57.0175274,39.5929809 L57.5678227,41.2224539 L54.5983251,42.5785144 L53.7437962,41.0879924 L53.7347154,41.0733601 L53.7166639,41.0459523 L53.6888437,41.0062679 L53.6505668,40.954861 L53.6011454,40.8923414 L53.5398914,40.8193187 L53.4661995,40.7364581 L53.3794092,40.6444245 L53.2789703,40.5439109 L53.1643323,40.4356655 L53.034945,40.3204366 L52.890368,40.1990277 L52.7300784,40.0721871 L52.5537187,39.9408017 L52.3608484,39.8057028 L52.1511374,39.6676941 L51.9242555,39.5277454 L51.6799275,39.3866606 L51.4179333,39.2454372 L51.1380251,39.1049344 L50.8400654,38.966122 L50.5239167,38.8299145 L50.1894964,38.6972821 L49.8367493,38.5691944 L49.4656756,38.4465939 L49.0762753,38.3304781 L48.6686859,38.221817 L48.2429349,38.1215529 L47.9166322,38.1787239 L47.4047789,38.6020061 L47.285628,38.9132463 L47.30046,39.3533224 L47.3270144,39.7771034 L47.3643832,40.1843677 L47.4116032,40.5747828 L47.4677665,40.9481546 L47.5318823,41.3043169 L47.6030426,41.6431034 L47.6803118,41.9644587 L47.7626992,42.2682719 L47.8493243,42.5545707 L47.9391965,42.8233829 L48.0313802,43.0747084 L48.1249948,43.3087136 L48.2190772,43.5255369 L48.3127468,43.7253171 L48.4050956,43.9083033 L48.495243,44.0747729 L48.5822809,44.2249752 L48.6654113,44.3592981 L48.7437812,44.4780466 L48.8165375,44.5816917 L48.8829372,44.6706214 L48.9421274,44.7453346 L48.9934201,44.8063023 L49.0360172,44.8541343 L49.0692583,44.8893015 L49.0924556,44.912497 L49.1049485,44.9242748 L50.3905118,46.0583574 L48.492106,48.7280227 L47.0120489,47.8674912 L46.9969418,47.8593714 L46.9676632,47.8447391 L46.9238828,47.8243704 L46.8652154,47.7991242 L46.7913859,47.7698597 L46.7020916,47.7374637 L46.5971123,47.7028229 L46.4762554,47.6668243 L46.3393832,47.6303545 L46.1863583,47.5943281 L46.0170981,47.5596874 L45.8316025,47.5273468 L45.6298166,47.4982208 L45.4118504,47.4732518 L45.1777314,47.4533541 L44.9276247,47.4394701 L44.6616404,47.4324866 L44.3800261,47.4333456 L44.0830021,47.4429619 L43.7708434,47.4622222 L43.4438803,47.4920409 L43.1024704,47.5332773 L42.7469992,47.586818 L42.3779068,47.6535222 L41.9956885,47.7341936 L41.6008121,47.8297189 L41.1938556,47.9408464 L40.7753968,48.0684075 L40.5211624,48.2822379 L40.2880616,48.9065473 L40.3393817,49.2360778 L40.5707215,49.6097267 L40.804125,49.9633672 L41.0386843,50.2972208 L41.2734087,50.6115648 L41.5074177,50.9066485 L41.7397756,51.1828046 L41.9696019,51.4403654 L42.196071,51.6797469 L42.418275,51.9013922 L42.6354157,52.1057172 L42.8466951,52.2932483 L43.0513154,52.4644845 L43.2485609,52.6200076 L43.4376888,52.7603996 L43.6180111,52.8862425 L43.7888398,52.9982291 L43.9495421,53.0969968 L44.0995126,53.1832384 L44.2381733,53.2577021 L44.3650015,53.3211085 L44.4794744,53.3742059 L44.5811241,53.4177978 L44.6694829,53.4526879 L44.7441654,53.47968 L44.804814,53.4996331 L44.8510709,53.5133508 L44.882661,53.5217477 L44.8993367,53.5256829 L46.5757037,53.8604788 L46.2570784,57.1284036 L44.5480481,57.1284314 L44.5309597,57.1290133 L44.4983514,57.1310641 L44.4503058,57.1354981 L44.3869605,57.1431745 L44.3085081,57.1550077 L44.2150861,57.1719124 L44.1069698,57.1947753 L43.9844343,57.2244555 L43.8477823,57.2617844 L43.6973716,57.3076487 L43.5336149,57.3628799 L43.3568974,57.4282817 L43.1677145,57.5046576 L42.9665339,57.5927836 L42.7539061,57.6934358 L42.5303813,57.8073623 L42.2965925,57.9352559 L42.0531175,58.0778095 L41.8006718,58.2356882 L41.5398884,58.409557 L41.2715375,58.6000257 L40.9963349,58.8076485 L40.7150784,59.0330073 L40.428566,59.2766287 L40.1375958,59.5389562 L39.8430483,59.8205162 L39.5458041,60.1216967 L39.2467162,60.4428579 L39.1327112,60.7560657 L39.2408,61.4141013 L39.4488599,61.6736575 L39.8347105,61.8807537 L40.2124159,62.0694765 L40.5812882,62.2405187 L40.9406394,62.3945453 L41.2898092,62.5322492 L41.628137,62.6544063 L41.9550451,62.7617372 L42.2700106,62.8550178 L42.5724831,62.9350795 L42.8619949,63.0026982 L43.1380506,63.0587054 L43.4002925,63.10396 L43.6483354,63.1393213 L43.8818215,63.1656483 L44.1004482,63.1838555 L44.3039952,63.1948297 L44.492215,63.1994299 L44.6649149,63.1985986 L44.8219574,63.19325 L44.9632874,63.1842989 L45.0887672,63.1726596 L45.198452,63.159219 L45.2922868,63.144947 L45.3703815,63.1307027 L45.4327912,63.1174561 L45.479681,63.1060385 L45.5111886,63.0974199 L45.527589,63.0924316 L47.1455914,62.5382351 L48.492106,65.5287846 L47.0120764,66.3893715 L46.9975472,66.3985167 L46.9703323,66.4166962 L46.9309273,66.4447136 L46.8798823,66.4832618 L46.8178028,66.5330336 L46.7452941,66.5947219 L46.6630167,66.6689362 L46.5716311,66.7563417 L46.471825,66.8574927 L46.3643416,66.9729434 L46.2499238,67.103248 L46.1293696,67.24885 L46.0034219,67.4102759 L45.8729614,67.5878859 L45.7388135,67.7821235 L45.6017763,67.9933212 L45.4628128,68.2218116 L45.3227211,68.4678717 L45.1824919,68.7317234 L45.0429781,69.0136159 L44.9051428,69.3136879 L44.7698943,69.6320779 L44.6381954,69.9688691 L44.5110095,70.3241169 L44.389272,70.6978213 L44.2739736,71.0899822 L44.1660774,71.5004612 L44.0665191,71.9292305 L44.1232877,72.2578465 L44.5435902,72.7733285 L44.8526394,72.893324 L45.2896176,72.8783869 L45.7104154,72.8516443 L46.1148128,72.8140106 L46.5024796,72.7664558 L46.873223,72.7098943 L47.2268781,72.645324 L47.5632798,72.5736592 L47.8823729,72.4958422 L48.1840474,72.4128707 L48.4683308,72.3256315 L48.7352507,72.2351221 L48.9848071,72.1422849 L49.217165,72.0480067 L49.432462,71.9532573 L49.6308358,71.8589236 L49.8125339,71.7659202 L49.9778316,71.6751337 L50.1269766,71.5874787 L50.260354,71.503759 L50.3782665,71.4248335 L50.481182,71.3515614 L50.5694857,71.2846909 L50.6436729,71.2250811 L50.7042115,71.1734248 L50.7517067,71.1305257 L50.7866264,71.0970489 L50.8096586,71.0736872 L50.8213535,71.0611057 L51.9474528,69.7664286 L54.5983251,71.6782929 L53.7438512,73.1688427 L53.7357886,73.1840569 L53.7212593,73.2135431 L53.701034,73.2576338 L53.6759655,73.3167171 L53.646907,73.39107 L53.614739,73.4809974 L53.5803421,73.5867209 L53.5445969,73.7084346 L53.5083838,73.8462771 L53.4726111,74.0003868 L53.4382142,74.170847 L53.4061012,74.3576576 L53.3771803,74.5608741 L53.352387,74.7803856 L53.3326295,75.0161644 L53.3188432,75.2680442 L53.3119088,75.5359141 L53.3127618,75.8195248 L53.3223104,76.1186546 L53.3414351,76.4330263 L53.3710439,76.7623074 L53.41199,77.1061376 L53.4651538,77.4641289 L53.5313885,77.835838 L53.611492,78.2207659 L53.7063448,78.6184417 L53.8166901,79.0282833 L53.9433532,79.4497087 L54.1556783,79.7057454 L54.7755929,79.9404988 L55.1028037,79.8888148 L55.4738223,79.655835 L55.8249734,79.4207768 L56.1564769,79.1845546 L56.468608,78.9481662 L56.7616145,78.7124982 L57.0358266,78.4784931 L57.2915744,78.2470375 L57.5292706,78.0189628 L57.7493557,77.7951836 L57.9522424,77.5765035 L58.1384534,77.3637262 L58.3084841,77.1576553 L58.4629124,76.9590114 L58.6023161,76.7685427 L58.7272732,76.5869421 L58.8384715,76.4149023 L58.9365439,76.2530607 L59.0221784,76.102027 L59.0961179,75.9623833 L59.159078,75.8346559 L59.2118016,75.7193715 L59.2550866,75.6170012 L59.2897312,75.528016 L59.3165332,75.452804 L59.3363459,75.3917255 L59.349967,75.3451406 L59.3583048,75.3133265 L59.3622123,75.2965327 L59.6946514,73.6082813 L62.9395718,73.9291655 L62.9395993,75.6503117 L62.9401772,75.6675212 L62.9422135,75.7003607 L62.9466163,75.7487469 L62.9542387,75.8125413 L62.9659886,75.8915499 L62.9827743,75.9856341 L63.0054763,76.0945169 L63.0349475,76.2179211 L63.0720136,76.3555419 L63.1175551,76.5070189 L63.1723975,76.6719366 L63.2373388,76.8499069 L63.3131771,77.040431 L63.4006828,77.2430378 L63.5006264,77.457173 L63.6137509,77.6822825 L63.7407443,77.9177287 L63.8822944,78.1629297 L64.0390616,78.4171651 L64.2117065,78.6797974 L64.4008344,78.9500506 L64.6069956,79.2272043 L64.8307681,79.5104548 L65.0726745,79.7989983 L65.3331553,80.0920313 L65.6127333,80.3886669 L65.9117936,80.6880184 L66.2306941,80.9892266 L66.5416971,81.1040399 L67.1951005,80.9951848 L67.4528295,80.7856499 L67.6584679,80.3970639 L67.8458622,80.0166808 L68.0157003,79.6451934 L68.1686426,79.2832946 L68.3053772,78.9316495 L68.4266744,78.5909231 L68.5332497,78.2616974 L68.6258737,77.944499 L68.7053718,77.6398822 L68.7725145,77.3483179 L68.8281274,77.0703052 L68.8730635,76.8062041 L68.9081759,76.5564028 L68.9343175,76.3212614 L68.9523965,76.1010848 L68.9632934,75.8960947 L68.9678613,75.7065406 L68.9670358,75.5326163 L68.9617249,75.3744605 L68.9528368,75.2321286 L68.9412794,75.1057592 L68.9279334,74.9952968 L68.9137619,74.9007968 L68.8996179,74.8221485 L68.8864645,74.7592963 L68.8751273,74.712074 L68.8665694,74.6803431 L68.8616162,74.6638264 L68.311321,73.0343534 L71.2808185,71.6782929 L72.1353475,73.1688149 L72.1444282,73.1834472 L72.1624797,73.210855 L72.1902999,73.2505394 L72.2285768,73.3019463 L72.2779983,73.3644659 L72.3392522,73.4374886 L72.4129441,73.5203492 L72.4997344,73.6123828 L72.6001733,73.7128964 L72.7148113,73.8211418 L72.8441986,73.9363707 L72.9887757,74.0577796 L73.1490652,74.1846202 L73.3254249,74.3160056 L73.5182952,74.4511045 L73.7280062,74.5891132 L73.9548881,74.7290619 L74.1992161,74.8701467 L74.4612104,75.0113701 L74.7411185,75.1518729 L75.0390782,75.2906853 L75.3552269,75.4268928 L75.6896473,75.5595252 L76.0423943,75.6876129 L76.413468,75.8102134 L76.8028684,75.9263292 L77.2104578,76.0349903 L77.6362088,76.1352544 L77.9625115,76.0780834 L78.4743648,75.6548012 L78.5935156,75.343561 L78.5786837,74.9034849 L78.5521293,74.4797039 L78.5147605,74.0724396 L78.4675404,73.6820245 L78.4113772,73.3086527 L78.3472614,72.9524904 L78.2761011,72.6137039 L78.1988319,72.2923486 L78.1164444,71.9885354 L78.0298193,71.7022366 L77.9399471,71.4334244 L77.8477634,71.1820989 L77.7541488,70.9480937 L77.6600665,70.7312704 L77.5663968,70.5314902 L77.4740481,70.348504 L77.3839007,70.1820344 L77.2968628,70.0318321 L77.2137324,69.8975092 L77.1353625,69.7787607 L77.0626062,69.6751156 L76.9962064,69.5861859 L76.9370162,69.5114727 L76.8857236,69.450505 L76.8431265,69.402673 L76.8098853,69.3675058 L76.7866881,69.3443103 L76.7741951,69.3325325 L75.4886318,68.1984499 L77.3870377,65.5287846 L78.8670947,66.3893161 L78.8822019,66.3974359 L78.9114805,66.4120682 L78.9552609,66.4324369 L79.0139282,66.4576831 L79.0877577,66.4869476 L79.177052,66.5193436 L79.2820313,66.5539844 L79.4028883,66.589983 L79.5397604,66.6264528 L79.6927853,66.6624792 L79.8620455,66.6971199 L80.0475411,66.7294605 L80.249327,66.7585865 L80.4672933,66.7835555 L80.7014123,66.8034532 L80.951519,66.8173372 L81.2175033,66.8243207 L81.4991175,66.8234617 L81.7961416,66.8138454 L82.1083003,66.7945851 L82.4352634,66.7647664 L82.7766732,66.72353 L83.1321445,66.6699893 L83.5012369,66.6032851 L83.8834552,66.5226137 L84.2783315,66.4270884 L84.685288,66.3159609 L85.1037469,66.1883998 L85.3579812,65.9745694 L85.5910821,65.35026 L85.5397619,65.0207295 L85.3084222,64.6470806 L85.0750186,64.2934401 L84.8404593,63.9595865 L84.6057349,63.6452425 L84.371726,63.3501588 L84.1393681,63.0740027 L83.9095418,62.8164419 L83.6830726,62.5770604 L83.4608687,62.3554151 L83.243728,62.1510901 L83.0324485,61.963559 L82.8278283,61.7923228 L82.6305827,61.6367997 L82.4414548,61.4964077 L82.2611326,61.3705648 L82.0903038,61.2585782 L81.9296015,61.1598105 L81.7796311,61.0735689 L81.6409703,60.9991052 L81.5141421,60.9356988 L81.3996692,60.8826014 L81.2980195,60.8390095 L81.2096608,60.8041194 L81.1349783,60.7771273 L81.0743296,60.7571742 L81.0280727,60.7434565 L80.9964826,60.7350596 L80.979807,60.7311244 L79.30344,60.3963285 L79.6220653,57.1284036 Z M63.030303,65.6157497 C67.7884916,65.6157497 71.6457656,61.7566766 71.6457656,56.9962687 C71.6457656,52.2358608 67.7884916,48.3767877 63.030303,48.3767877 C58.2721144,48.3767877 54.4148404,52.2358608 54.4148404,56.9962687 C54.4148404,61.7566766 58.2721144,65.6157497 63.030303,65.6157497 Z" id="gearpoly2" sketch:type="MSShapeGroup"></path>
            </g>
        </g>
    </g>
</svg>