<?xml version="1.0" encoding="UTF-8" standalone="no"?>
<svg width="120px" height="90px" viewBox="0 0 120 90" version="1.1" xmlns="http://www.w3.org/2000/svg" xmlns:xlink="http://www.w3.org/1999/xlink" xmlns:sketch="http://www.bohemiancoding.com/sketch/ns">
    <!-- Generator: Sketch 3.3.2 (12043) - http://www.bohemiancoding.com/sketch -->
    <title>i_star_programmer</title>
    <desc>Created with Sketch.</desc>
    <defs></defs>
    <g id="Page-1" stroke="none" stroke-width="1" fill="none" fill-rule="evenodd" sketch:type="MSPage">
        <g id="i_star_programmer" sketch:type="MSArtboardGroup" stroke-width="3" stroke="#5F5F5F">
            <g id="man42-copy-2-+-Star-1-Copy-4-Copy-Copy-Copy" sketch:type="MSLayerGroup" transform="translate(27.000000, 2.000000)">
                <g id="man42-copy-2" sketch:type="MSShapeGroup">
                    <g id="Group">
                        <path d="M43,44 C43,44 40.5,48 33,48 C25.5,48 23,44 23,44 C23,44 20.489659,44.7707477 10.4484076,49.7491345 C0.40715621,54.7275213 -0.200154314,80.9930485 0.0374867261,81.0887376 C14.9574759,87.6370874 51.0394934,87.6370874 65.9596617,81.0887376 C66.1973027,80.9930485 65.6634192,54.2380012 56.5371138,49.7491345 C47.4108085,45.2602677 43,44 43,44 Z" id="Shape"></path>
                        <path d="M47.545012,19.8846061 C46.7651511,19.1304904 47,19 47,19 C47,19 48.1863757,11.924927 47.0956063,8.49699987 C45.3831868,3.02251491 40.979609,1.13244556 38.2124426,0.54736187 C35.4452763,-0.0377218147 29.4752679,-0.314207419 27.6049717,0.547361861 C26.3868985,1.04228339 20.705468,2.72026871 18.8979884,8.49699987 C17.807386,11.924927 19.1676318,19.1737188 19.1676318,19.1737188 C19.1676318,19.1737188 19.2286106,19.1304904 18.4485827,19.8846061 L18.3324723,20.0178203 C17.80488,20.6505435 17.935191,22.6302296 18.5119004,24.6898443 C19.0344807,26.7533406 19.715606,27.3078997 19.8788288,27.7911761 C21.5332767,35.9952283 27.9362171,42.9999999 33,43 C38.0637829,43.0000001 44.460151,35.9952283 46.1145988,27.7911761 C46.2779886,27.3080762 46.9591139,26.7533406 47.4816942,24.6898443 C48.0584037,22.6300532 48.2039176,20.5145063 47.6612894,20.0178203 L47.545012,19.8846061 Z" id="Shape"></path>
                    </g>
                </g>
                <polygon id="Star-1-Copy-4" fill="#FFFFFF" sketch:type="MSShapeGroup" points="33 70.5760009 26.8964376 73.7848336 28.0621143 66.9884169 23.1242286 62.1751679 29.9482188 61.1835841 33 55 36.0517812 61.1835841 42.8757714 62.1751679 37.9378857 66.9884169 39.1035624 73.7848336 "></polygon>
            </g>
        </g>
    </g>
</svg>